<svg xmlns="http://www.w3.org/2000/svg" viewBox="0 0 256 255" width="256" height="255" preserveAspectRatio="xMidYMid">
  <defs>
    <linearGradient id="py-a" x1="12.959%" y1="12.039%" x2="79.639%" y2="78.201%">
      <stop offset="0%" stop-color="#387EB8"/>
      <stop offset="100%" stop-color="#366994"/>
    </linearGradient>
    <linearGradient id="py-b" x1="19.128%" y1="20.579%" x2="90.742%" y2="88.429%">
      <stop offset="0%" stop-color="#FFE052"/>
      <stop offset="100%" stop-color="#FFC331"/>
    </linearGradient>
  </defs>
  <path fill="url(#py-a)" d="M126.916.072c-64.832 0-60.784 28.115-60.784 28.115l.072 29.128h61.868v8.745H41.631S.072 61.355.072 126.77c0 65.417 36.299 63.097 36.299 63.097h21.61v-30.356s-1.165-36.299 35.72-36.299h61.366s34.555.559 34.555-33.397V34.05S231.224.072 126.916.072zM92.802 19.66a11.12 11.12 0 0 1 11.13 11.13 11.12 11.12 0 0 1-11.13 11.13 11.12 11.12 0 0 1-11.13-11.13 11.12 11.12 0 0 1 11.13-11.13z"/>
  <path fill="url(#py-b)" d="M128.757 254.126c64.832 0 60.784-28.115 60.784-28.115l-.072-29.128h-61.868v-8.745h86.441s41.559 4.717 41.559-60.698c0-65.416-36.299-63.096-36.299-63.096h-21.61v30.355s1.165 36.3-35.72 36.3H100.6s-34.555-.56-34.555 33.396v56.265s-5.241 33.971 62.712 33.971zm34.114-19.586a11.12 11.12 0 0 1-11.13-11.13 11.12 11.12 0 0 1 11.13-11.131 11.12 11.12 0 0 1 11.13 11.13 11.12 11.12 0 0 1-11.13 11.13z"/>
</svg>
